<?xml version="1.0" encoding="utf-8"?>
<!-- Generator: Adobe Illustrator 22.0.0, SVG Export Plug-In . SVG Version: 6.00 Build 0)  -->
<svg version="1.1" id="Слой_1" xmlns="http://www.w3.org/2000/svg" xmlns:xlink="http://www.w3.org/1999/xlink" x="0px" y="0px"
	 viewBox="0 0 534 540.5" style="enable-background:new 0 0 534 540.5;" xml:space="preserve">
<style type="text/css">
	.st0{fill:#A9A9AC;}
</style>
<g>
	<path class="st0" d="M304.1,271.5c0,19.6-15.9,35.5-35.5,35.5s-35.5-15.9-35.5-35.5S249,236,268.6,236S304.1,251.9,304.1,271.5z"/>
	<path class="st0" d="M398.7,173.1c-2.7-7.2-6.9-13.8-12.5-19.2c-5.4-5.5-11.9-9.8-19.2-12.5c-5.9-2.3-14.7-5-31-5.7
		c-17.6-0.8-22.9-1-67.5-1c-44.6,0-49.9,0.2-67.5,1c-16.3,0.7-25.1,3.5-31,5.7c-7.3,2.7-13.8,6.9-19.2,12.5
		c-5.5,5.4-9.8,11.9-12.5,19.2c-2.3,5.9-5,14.7-5.7,31c-0.8,17.6-1,22.9-1,67.5c0,44.6,0.2,49.8,1,67.5c0.7,16.3,3.5,25.1,5.7,31
		c2.7,7.3,6.9,13.8,12.5,19.2c5.4,5.5,11.9,9.8,19.2,12.5c5.9,2.3,14.7,5,31,5.7c17.6,0.8,22.9,1,67.5,1c44.6,0,49.9-0.2,67.5-1
		c16.3-0.7,25.1-3.5,31-5.7c14.6-5.6,26.1-17.1,31.7-31.7c2.3-5.9,5-14.7,5.7-31c0.8-17.6,1-22.9,1-67.5c0-44.6-0.2-49.9-1-67.5
		C403.7,187.8,401,179,398.7,173.1z M268.6,347c-41.7,0-75.5-33.8-75.5-75.5s33.8-75.5,75.5-75.5c41.7,0,75.5,33.8,75.5,75.5
		S310.3,347,268.6,347z M353.7,213.4c-13.9,0-25.1-11.3-25.1-25.1s11.3-25.1,25.1-25.1s25.1,11.3,25.1,25.1
		C378.8,202.1,367.6,213.4,353.7,213.4z"/>
	<path class="st0" d="M268.6,2.6C120,2.6-0.4,123-0.4,271.5s120.4,269,269,269s269-120.4,269-269S417.1,2.6,268.6,2.6z M448.8,346.3
		c-0.9,19.3-3.9,32.5-8.4,44c-9.4,24.4-28.7,43.6-53,53c-11.5,4.5-24.7,7.5-44,8.4c-19.3,0.9-25.5,1.1-74.7,1.1
		c-49.2,0-55.4-0.2-74.8-1.1c-19.3-0.9-32.5-3.9-44-8.4c-12.1-4.6-23.1-11.7-32.1-20.9c-9.2-9.1-16.4-20-20.9-32.1
		c-4.5-11.5-7.5-24.7-8.4-44c-0.9-19.3-1.1-25.5-1.1-74.8s0.2-55.4,1.1-74.7c0.9-19.3,3.9-32.5,8.4-44c4.6-12.1,11.7-23.1,20.9-32.1
		c9.1-9.2,20-16.4,32.1-20.9c11.5-4.5,24.7-7.5,44-8.4c19.3-0.9,25.5-1.1,74.7-1.1s55.4,0.2,74.7,1.1c19.3,0.9,32.5,3.9,44,8.4
		c12.1,4.6,23.1,11.7,32.1,20.9c9.2,9.1,16.4,20,20.9,32.1c4.5,11.5,7.5,24.7,8.4,44c0.9,19.3,1.1,25.5,1.1,74.7
		S449.7,326.9,448.8,346.3z"/>
</g>
</svg>
