<?xml version="1.0" encoding="utf-8"?>
<!-- Generator: Adobe Illustrator 22.0.0, SVG Export Plug-In . SVG Version: 6.00 Build 0)  -->
<svg version="1.1" id="Layer_1" xmlns="http://www.w3.org/2000/svg" xmlns:xlink="http://www.w3.org/1999/xlink" x="0px" y="0px"
	 viewBox="0 0 512 512" style="enable-background:new 0 0 512 512;" xml:space="preserve">
<style type="text/css">
	.st0{fill:#A9A9AC;}
	.st1{display:none;fill:#3298BA;}
	.st2{fill:#E5E5E5;}
	.st3{fill:#CCCCCC;}
	.st4{fill:#FFFFFF;}
</style>
<circle class="st0" cx="256" cy="256" r="256"/>
<path class="st1" d="M34.1,256c0-135.6,105.5-246.6,239-255.4C267.4,0.2,261.7,0,256,0C114.6,0,0,114.6,0,256s114.6,256,256,256
	c5.7,0,11.4-0.2,17.1-0.6C139.6,502.6,34.1,391.6,34.1,256z"/>
<path class="st2" d="M362.5,135.1c-2.1-1.4-4.8-1.6-7.1-0.6L124.5,242.1c-4.1,1.9-6.6,6-6.5,10.5c0.1,4.4,2.8,8.3,6.8,10.1
	l212.9,92.7c7.1,3.2,15.5-1.9,15.9-9.6l12-204.3C365.8,139,364.6,136.6,362.5,135.1z"/>
<polygon class="st3" points="187.4,289.9 201.8,386.1 361.6,134.6 "/>
<path class="st4" d="M355.5,134.6l-231,107.5c-4,1.9-6.6,6-6.5,10.4c0,4.4,2.8,8.5,6.8,10.2l62.6,27.3l174.2-155.3
	C359.7,133.7,357.4,133.7,355.5,134.6z"/>
<polygon class="st2" points="220.8,304.5 201.8,386.1 361.6,134.6 "/>
<path class="st4" d="M362.5,135.1c-0.3-0.2-0.6-0.4-0.9-0.5L220.8,304.5l116.9,50.9c7.1,3.2,15.5-1.9,15.9-9.6l12-204.3
	C365.8,139,364.6,136.6,362.5,135.1z"/>
</svg>
