<?xml version="1.0" encoding="utf-8"?>
<!-- Generator: Adobe Illustrator 22.0.0, SVG Export Plug-In . SVG Version: 6.00 Build 0)  -->
<svg version="1.1" id="Layer_1" xmlns="http://www.w3.org/2000/svg" xmlns:xlink="http://www.w3.org/1999/xlink" x="0px" y="0px"
	 viewBox="0 0 462.4 512" style="enable-background:new 0 0 462.4 512;" xml:space="preserve">
<style type="text/css">
	.st0{fill:#A9A9AC;}
	.st1{display:none;fill:#523494;}
	.st2{fill:#FFFFFF;stroke:#A9A9AC;stroke-width:10;stroke-miterlimit:10;}
	.st3{display:none;}
	.st4{display:inline;fill:#E5E5E5;}
	.st5{fill:#FFFFFF;}
</style>
<path class="st0" d="M283.2,0H180.8C82,0,1.6,80.4,1.6,179.2V256c0,69.4,40,132.3,102.4,162v85.5c0,7.4,9.3,11.3,14.6,6l74.3-74.3
	h90.3c98.8,0,179.2-80.4,179.2-179.2v-76.8C462.4,80.4,382,0,283.2,0z"/>
<path class="st1" d="M129.6,418C67.2,388.4,27.2,325.4,27.2,256v-76.8C27.2,80.4,107.6,0,206.4,0h-25.6C82,0,1.6,80.4,1.6,179.2V256
	c0,69.4,40,132.3,102.4,162v85.5c0,7.4,9.3,11.3,14.6,6l11-11V418z"/>
<path class="st2" d="M356.9,318.1l-7.7-41.6c-0.6-3.4-3.3-6.1-6.7-6.8l-60.3-12.1c-2.8-0.6-5.7,0.3-7.7,2.3L250,284.4
	c-41.3-18.5-64.2-41.5-84.4-84.6l24.4-24.4c2-2,2.9-4.9,2.3-7.7l-12.1-60.3c-0.7-3.4-3.4-6.1-6.8-6.7L131.8,93
	c-1.1-0.2-2.3-0.2-3.4,0.1c-11,2.5-21,8-29,16c-13.8,13.8-19.1,33.9-15.3,58.2c6.4,40.8,26.4,97.6,63.3,134.6l0.5,0.5
	c37,36.9,93.8,56.9,134.6,63.3c5.1,0.8,10.1,1.2,14.8,1.2c17.7,0,32.5-5.6,43.4-16.5c8-8,13.5-18,16-29
	C357,320.4,357.1,319.2,356.9,318.1z"/>
<g class="st3">
	<polygon class="st4" points="185.6,183.8 193.9,175.5 193.9,175.5 	"/>
	<polygon class="st4" points="270,268.4 278.4,260 278.4,260 	"/>
	<path class="st4" d="M317.5,350.9c-4.7,0-9.7-0.4-14.8-1.2c-40.8-6.4-97.6-26.4-134.6-63.3l-0.5-0.5c-36.9-37-56.9-93.8-63.3-134.6
		c-3.1-19.6-0.2-36.5,8.3-49.6c-3.3,2.2-6.3,4.7-9.1,7.5c-13.8,13.8-19.1,33.9-15.3,58.2c6.4,40.8,26.4,97.6,63.3,134.6l0.5,0.5
		c37,36.9,93.8,56.9,134.6,63.3c5.1,0.8,10.1,1.2,14.8,1.2c17.7,0,32.5-5.6,43.4-16.5c2.8-2.8,5.3-5.8,7.5-9.1
		C342.6,347.7,330.9,350.9,317.5,350.9z"/>
</g>
<g>
	<path class="st5" d="M249.1,145.1c-4.7,0-8.5,3.8-8.5,8.5s3.8,8.5,8.5,8.5c18.8,0,34.1,15.3,34.1,34.1c0,4.6,3.9,8.5,8.5,8.5
		s8.5-3.9,8.5-8.5C300.3,168.1,277.3,145.1,249.1,145.1z"/>
	<path class="st5" d="M249.1,110.9c-3.2,0-6.3,0.2-9.5,0.5c-4.7,0.5-8.1,4.7-7.5,9.4s4.7,8.1,9.4,7.5c2.5-0.3,5.1-0.4,7.6-0.4
		c37.6,0,68.3,30.6,68.3,68.3c0,2.5-0.1,5.1-0.4,7.6c-0.5,4.6,2.9,8.9,7.5,9.4s8.9-2.9,9.4-7.5c0.3-3.1,0.5-6.3,0.5-9.5
		C334.4,149.2,296.1,110.9,249.1,110.9z"/>
	<path class="st5" d="M249.1,76.8c-3,0-6.1,0.1-9.2,0.3c-4.7,0.4-8.2,4.5-7.9,9.2c0.4,4.7,4.5,8.2,9.2,7.9c2.6-0.2,5.3-0.3,7.9-0.3
		c56.5,0,102.4,45.9,102.4,102.4c0,8-0.9,15.9-2.7,23.6c-1,4.4,1.7,9,6,10.2c4.6,1.3,9.5-1.6,10.6-6.3c2.1-9,3.2-18.3,3.2-27.6
		C368.6,130.4,315,76.8,249.1,76.8z"/>
</g>
</svg>
