<svg width="12" height="16" viewBox="0 0 12 16" fill="none" xmlns="http://www.w3.org/2000/svg">
<path d="M6.00131 0C3.06056 0 0.667969 2.39259 0.667969 5.33334C0.667969 6.21616 0.888687 7.09147 1.30828 7.86784L5.70966 15.8281C5.76825 15.9342 5.87991 16 6.00131 16C6.12272 16 6.23438 15.9342 6.29297 15.8281L10.696 7.86522C11.1139 7.09147 11.3347 6.21613 11.3347 5.33331C11.3347 2.39259 8.94206 0 6.00131 0ZM6.00131 8C4.53094 8 3.33466 6.80372 3.33466 5.33334C3.33466 3.86297 4.53094 2.66669 6.00131 2.66669C7.47169 2.66669 8.66797 3.86297 8.66797 5.33334C8.66797 6.80372 7.47169 8 6.00131 8Z" fill="#55559D"/>
</svg>
