<svg width="16" height="13" viewBox="0 0 16 13" fill="none" xmlns="http://www.w3.org/2000/svg">
<path d="M8.00008 0C3.58186 0 0 3.61589 0 8.07636C0 10.4949 1.04374 12.0723 1.04374 12.0723L14.9531 12.073C14.9531 12.073 15.9998 10.3491 15.9998 8.07619C15.9998 3.61589 12.418 0 8.00008 0ZM14.3663 11.0891L1.65916 11.0835C1.65916 11.0835 0.982052 9.80124 0.982052 8.05088C0.982052 4.14145 4.13608 0.971993 8.02691 0.971993C11.9176 0.971993 15.0718 4.14128 15.0718 8.05088C15.0719 9.82102 14.3663 11.0891 14.3663 11.0891Z" fill="#55559D"/>
<path d="M10.2597 2.14525L10.1593 2.14508L8.02533 6.3266L5.81463 2.10938L2.78784 9.7279H2.00562V10.3398H6.2909V9.7279H5.44062L6.2909 7.34687L8.02533 10.3398L9.69187 7.34687L10.542 9.7279H9.69187V10.3398H13.943V9.7279H13.2065L10.2597 2.14525Z" fill="#55559D"/>
</svg>
