<svg width="18" height="18" viewBox="0 0 18 18" fill="none" xmlns="http://www.w3.org/2000/svg">
<g clip-path="url(#clip0)">
<path d="M13.3073 11.1523L14.643 9.98605C14.877 9.78205 14.9018 9.42655 14.697 9.19255C14.493 8.95855 14.1375 8.93455 13.9028 9.13855L11.442 11.2865C11.3205 11.393 11.25 11.5475 11.25 11.7103C11.25 11.873 11.3205 12.0275 11.4427 12.134L13.9035 14.2813C14.0108 14.3743 14.142 14.42 14.2733 14.42C14.43 14.42 14.586 14.3548 14.697 14.2273C14.901 13.9933 14.877 13.6378 14.643 13.4338L13.3245 12.2833C15.291 12.3425 16.8743 13.9843 16.8743 16.0048V17.4365C16.8743 17.747 17.1263 17.999 17.4368 17.999C17.7473 17.999 18 17.7478 18 17.4373V16.0055C18 13.3573 15.903 11.201 13.3073 11.1523Z" fill="#55559D"/>
<path d="M6.91461 0L3.26961 0.015C2.79711 0.015 2.35461 0.2775 2.12961 0.69L0.224609 4.14L6.54711 4.125L6.91461 0Z" fill="#55559D"/>
<path d="M14.76 4.11035L12.8325 0.660352C12.6 0.247852 12.165 -0.0146484 11.685 -0.0146484L8.04004 0.000351562L8.42254 4.12535L14.76 4.11035Z" fill="#55559D"/>
<path d="M14.9994 7.63504C14.7744 7.54504 14.5269 7.50004 14.2719 7.50004C13.7769 7.50004 13.2969 7.68004 12.9144 8.01004L10.4544 10.155C10.0044 10.545 9.74944 11.115 9.74944 11.7075C9.74944 12.3075 10.0044 12.87 10.4544 13.2675L12.4344 14.9925L1.20694 15.0225C1.19944 15.0225 1.19944 15.0225 1.19944 15.0225C0.554443 15.0225 0.0219434 14.49 0.0219434 13.8375L-0.00805664 5.26504L6.92944 5.25004H8.05444L14.9919 5.22754L14.9994 7.63504Z" fill="#55559D"/>
</g>
<defs>
<clipPath id="clip0">
<rect width="18" height="18" fill="white"/>
</clipPath>
</defs>
</svg>
