<svg width="16" height="16" viewBox="0 0 16 16" fill="none" xmlns="http://www.w3.org/2000/svg">
<g clip-path="url(#clip0)">
<path d="M11.6663 7.33301C9.277 7.33301 7.33301 9.277 7.33301 11.6663C7.33301 14.0557 9.277 15.9997 11.6663 15.9997C14.0557 15.9997 15.9997 14.0557 15.9997 11.6663C15.9997 9.277 14.0557 7.33301 11.6663 7.33301ZM13.5443 10.827L11.3777 13.327C11.2863 13.4317 11.1563 13.4943 11.0177 13.499C11.0117 13.499 11.0057 13.499 10.9997 13.499C10.867 13.499 10.7397 13.4463 10.6463 13.3523L9.47967 12.1857C9.28434 11.9903 9.28434 11.6737 9.47967 11.4783C9.675 11.283 9.99167 11.283 10.187 11.4783L10.9743 12.265L12.789 10.171C12.9697 9.963 13.285 9.93967 13.4943 10.1203C13.7023 10.303 13.725 10.6183 13.5443 10.827Z" fill="#55559D"/>
<path d="M6.1454 0L2.9054 0.0133333C2.4854 0.0133333 2.09206 0.246667 1.89206 0.613333L0.19873 3.68L5.81873 3.66667L6.1454 0Z" fill="#55559D"/>
<path d="M13.1201 3.653L11.4067 0.586328C11.2001 0.219661 10.8134 -0.0136719 10.3867 -0.0136719L7.14673 -0.00033854L7.48673 3.66633L13.1201 3.653Z" fill="#55559D"/>
<path d="M13.3337 6.24648C12.807 6.08648 12.247 5.99982 11.667 5.99982C8.54032 5.99982 6.00032 8.53982 6.00032 11.6665C6.00032 12.2465 6.08699 12.8132 6.25365 13.3398L1.07365 13.3532C1.06699 13.3532 1.06699 13.3532 1.06699 13.3532C0.493652 13.3532 0.020319 12.8798 0.020319 12.2998L-0.00634766 4.67982L6.16032 4.66648H7.16032L13.327 4.64648L13.3337 6.24648Z" fill="#55559D"/>
</g>
<defs>
<clipPath id="clip0">
<rect width="16" height="16" fill="white"/>
</clipPath>
</defs>
</svg>
